<mxfile host="app.diagrams.net" modified="2023-10-11T22:11:17.100Z" agent="Mozilla/5.0 (Windows NT 10.0; Win64; x64) AppleWebKit/537.36 (KHTML, like Gecko) Chrome/117.0.0.0 Safari/537.36" etag="uFWBppKf0V4Pw1beHHbI" version="22.0.4" type="github">
  <diagram name="Page-1" id="_NqfBwlQ9Yb1ZlnomQ05">
    <mxGraphModel dx="836" dy="446" grid="1" gridSize="10" guides="1" tooltips="1" connect="1" arrows="1" fold="1" page="1" pageScale="1" pageWidth="827" pageHeight="1169" math="0" shadow="0">
      <root>
        <mxCell id="0" />
        <mxCell id="1" parent="0" />
        <mxCell id="_tAlikrw9c_dk1lk49dS-2" value="Azure Container Application" style="verticalAlign=top;align=left;spacingTop=8;spacingLeft=2;spacingRight=12;shape=cube;size=10;direction=south;fontStyle=4;html=1;whiteSpace=wrap;" vertex="1" parent="1">
          <mxGeometry x="60" y="20" width="710" height="420" as="geometry" />
        </mxCell>
        <mxCell id="_tAlikrw9c_dk1lk49dS-3" value="Scheduling Microservice" style="verticalAlign=top;align=left;spacingTop=8;spacingLeft=2;spacingRight=12;shape=cube;size=10;direction=south;fontStyle=4;html=1;whiteSpace=wrap;" vertex="1" parent="1">
          <mxGeometry x="70" y="180" width="180" height="120" as="geometry" />
        </mxCell>
        <mxCell id="_tAlikrw9c_dk1lk49dS-4" value="Registration Microservice" style="verticalAlign=top;align=left;spacingTop=8;spacingLeft=2;spacingRight=12;shape=cube;size=10;direction=south;fontStyle=4;html=1;whiteSpace=wrap;" vertex="1" parent="1">
          <mxGeometry x="320" y="180" width="180" height="120" as="geometry" />
        </mxCell>
        <mxCell id="_tAlikrw9c_dk1lk49dS-5" value="Analytics Microservice" style="verticalAlign=top;align=left;spacingTop=8;spacingLeft=2;spacingRight=12;shape=cube;size=10;direction=south;fontStyle=4;html=1;whiteSpace=wrap;" vertex="1" parent="1">
          <mxGeometry x="570" y="180" width="180" height="120" as="geometry" />
        </mxCell>
      </root>
    </mxGraphModel>
  </diagram>
</mxfile>
